<svg id="svg" version="1.1" xmlns="http://www.w3.org/2000/svg" xmlns:xlink="http://www.w3.org/1999/xlink" width="400" height="400" viewBox="0, 0, 400,400"><g id="svgg"><path id="path0" d="M180.923 126.456 C 180.590 127.089,180.130 131.784,179.465 141.323 C 179.192 145.232,178.765 146.094,177.102 146.094 C 176.257 146.094,164.829 138.442,152.774 129.805 C 148.737 126.913,149.241 126.258,147.648 136.479 C 144.973 153.652,147.290 153.509,127.344 137.729 C 122.725 134.075,117.812 130.134,116.428 128.973 C 113.331 126.376,113.345 126.366,110.955 133.093 C 104.363 151.647,101.658 169.288,102.047 191.185 C 102.301 205.506,102.843 207.170,109.937 215.430 C 116.504 223.075,118.356 225.766,118.358 227.667 C 118.361 230.185,115.312 232.005,112.742 231.019 C 112.411 230.892,109.917 228.156,107.201 224.939 C 104.485 221.723,102.210 219.147,102.145 219.214 C 102.080 219.281,101.825 222.061,101.578 225.391 C 101.331 228.721,100.696 236.895,100.167 243.555 C 97.659 275.136,97.049 272.393,109.554 285.742 C 112.371 288.750,118.267 295.078,122.655 299.805 C 147.765 326.851,149.770 328.530,159.033 330.259 C 164.227 331.229,238.804 330.961,242.512 329.959 C 248.206 328.421,252.980 325.452,257.839 320.427 C 263.212 314.870,284.435 292.123,292.387 283.398 C 302.306 272.514,302.299 272.557,299.609 243.164 C 299.393 240.801,298.953 235.527,298.632 231.445 C 297.518 217.292,297.991 218.001,293.359 223.551 C 286.764 231.455,285.390 232.386,282.897 230.640 C 279.280 228.106,280.195 226.155,290.763 213.867 C 296.472 207.229,297.474 204.290,297.889 192.969 C 298.317 181.283,297.187 164.957,295.290 155.416 C 293.514 146.488,289.348 132.467,287.285 128.477 L 286.670 127.288 285.230 128.374 C 284.437 128.971,280.801 131.843,277.148 134.756 C 256.372 151.329,258.023 151.180,256.823 136.584 C 256.010 126.697,256.110 126.869,252.606 129.300 C 239.198 138.603,225.316 147.656,224.459 147.656 C 222.163 147.656,221.949 143.068,223.680 130.957 C 224.011 128.639,224.278 128.523,212.689 135.742 C 201.191 142.905,201.172 142.912,198.478 140.735 C 196.344 139.010,187.398 131.100,184.441 128.323 C 181.754 125.799,181.374 125.597,180.923 126.456 M131.009 163.460 C 133.398 164.371,140.625 167.149,147.070 169.634 C 184.662 184.127,181.947 183.667,184.060 175.892 C 185.628 170.126,187.981 168.474,190.622 171.286 L 191.537 172.259 190.659 179.196 C 188.871 193.321,185.895 195.213,171.289 191.508 C 164.034 189.667,164.069 189.667,163.407 191.633 C 163.111 192.510,162.010 194.191,160.960 195.370 C 150.862 206.700,132.606 197.237,136.295 182.585 C 136.875 180.285,137.794 180.825,127.076 177.171 C 116.844 173.682,116.294 173.335,116.335 170.386 C 116.371 167.724,118.796 163.884,121.235 162.622 C 124.271 161.052,124.821 161.100,131.009 163.460 M278.154 162.335 C 282.261 164.396,284.849 171.083,282.368 173.219 C 281.280 174.156,275.649 176.268,267.661 178.735 C 263.783 179.933,262.907 180.336,263.099 180.832 C 269.590 197.518,245.275 208.438,236.942 192.579 C 235.845 190.492,235.326 189.860,234.833 190.011 C 214.283 196.311,210.047 193.903,208.712 175.163 C 208.213 168.154,213.830 168.215,215.591 175.236 C 216.774 179.952,217.344 181.176,218.495 181.465 C 220.449 181.956,231.053 178.247,259.375 167.171 C 275.322 160.934,275.349 160.927,278.154 162.335 M82.534 167.614 C 76.867 171.244,76.548 193.821,82.008 204.907 C 83.827 208.601,86.559 211.535,89.431 212.880 C 91.921 214.047,91.767 214.609,91.140 206.641 C 90.844 202.881,90.459 193.389,90.285 185.547 C 89.941 170.064,89.834 169.330,87.652 167.614 C 86.320 166.566,84.170 166.566,82.534 167.614 M311.574 167.608 C 309.595 169.165,309.588 169.214,309.331 184.766 C 309.198 192.822,308.859 202.533,308.578 206.344 C 308.010 214.038,308.034 214.150,310.049 213.069 C 317.445 209.101,321.302 199.342,321.234 184.766 C 321.172 171.225,316.814 163.486,311.574 167.608 M178.524 208.108 C 179.580 209.449,179.526 209.775,177.708 213.087 C 174.828 218.336,176.148 220.527,181.477 219.342 C 185.235 218.505,186.560 218.673,190.590 220.492 C 197.387 223.561,202.817 223.670,209.142 220.865 C 214.144 218.646,214.916 218.514,218.159 219.322 C 223.477 220.646,224.858 218.123,221.680 212.892 C 218.118 207.027,223.239 204.404,228.395 209.453 C 236.783 217.664,230.272 230.277,218.522 228.578 L 215.255 228.106 212.117 229.683 C 204.458 233.534,196.272 233.512,187.762 229.618 L 184.312 228.039 181.200 228.523 C 173.398 229.737,168.595 226.367,167.738 219.076 C 166.860 211.602,174.868 203.459,178.524 208.108 M222.461 257.200 C 238.872 259.171,250.024 263.541,255.147 270.008 C 259.660 275.707,255.795 280.493,249.660 276.801 C 237.453 269.455,228.186 267.782,199.805 267.800 C 171.787 267.819,163.605 269.179,151.566 275.821 C 146.036 278.872,143.847 278.997,142.632 276.330 C 140.190 270.970,150.278 263.019,163.926 259.548 C 176.088 256.455,206.196 255.248,222.461 257.200 M219.766 284.531 C 221.912 286.677,221.637 289.809,219.151 291.522 C 217.458 292.689,181.781 292.523,180.279 291.341 C 177.598 289.232,177.746 285.285,180.563 283.721 C 181.235 283.348,185.861 283.228,199.941 283.217 L 218.437 283.203 219.766 284.531 " stroke="none" fill="#0cb30c" fill-rule="evenodd"></path><path id="path1" d="M232.625 40.869 C 232.122 41.371,232.012 41.912,232.188 43.012 C 232.321 43.843,232.253 44.590,232.032 44.726 C 231.817 44.859,231.641 45.167,231.641 45.410 C 231.641 45.653,231.861 45.550,232.131 45.181 C 232.559 44.596,232.793 44.937,233.956 47.839 C 235.570 51.864,235.528 51.925,232.164 50.450 C 229.447 49.259,220.730 46.484,219.704 46.484 C 219.394 46.484,219.141 46.298,219.141 46.071 C 219.141 45.843,218.973 45.761,218.767 45.888 C 218.562 46.015,217.287 45.865,215.935 45.555 C 214.583 45.244,212.468 44.867,211.235 44.717 C 210.002 44.566,209.064 44.327,209.151 44.187 C 209.238 44.046,208.621 43.997,207.780 44.077 C 206.938 44.157,206.249 44.072,206.248 43.889 C 206.246 43.705,205.324 43.534,204.197 43.508 C 203.070 43.482,200.127 43.263,197.656 43.021 C 195.186 42.779,191.264 42.580,188.942 42.579 C 186.620 42.579,184.801 42.446,184.901 42.285 C 185.000 42.124,182.918 41.992,180.273 41.992 C 177.629 41.992,175.547 42.124,175.646 42.285 C 175.806 42.544,171.472 42.720,163.965 42.760 C 162.622 42.768,161.436 42.873,161.328 42.994 C 161.221 43.116,159.199 43.431,156.836 43.694 C 154.473 43.958,149.814 44.640,146.484 45.209 C 143.154 45.779,139.873 46.255,139.193 46.267 C 138.512 46.279,138.033 46.367,138.128 46.462 C 138.223 46.557,135.528 47.275,132.139 48.058 C 125.916 49.496,119.827 51.157,114.453 52.881 C 106.889 55.309,106.977 56.599,114.983 60.615 C 117.530 61.893,119.551 62.999,119.475 63.073 C 119.398 63.147,116.875 64.442,113.867 65.951 C 110.859 67.460,106.729 69.703,104.688 70.936 C 102.647 72.169,100.765 73.177,100.506 73.177 C 100.246 73.177,100.114 73.305,100.210 73.462 C 100.307 73.618,100.167 73.832,99.900 73.938 C 99.397 74.136,92.492 79.274,90.430 80.985 C 89.785 81.519,89.099 81.859,88.905 81.738 C 88.710 81.618,88.662 81.699,88.797 81.918 C 89.030 82.295,85.317 85.742,84.677 85.742 C 84.511 85.742,84.419 85.847,84.473 85.976 C 84.526 86.105,82.789 88.075,80.613 90.355 C 74.690 96.558,74.763 97.788,81.138 99.234 C 83.241 99.711,85.049 100.210,85.156 100.343 C 85.264 100.477,85.766 100.586,86.272 100.586 L 87.193 100.586 87.126 112.891 C 87.089 119.658,87.016 125.767,86.964 126.465 C 86.912 127.163,86.998 127.734,87.155 127.734 C 87.312 127.734,87.460 133.457,87.484 140.451 C 87.508 147.445,87.626 153.658,87.746 154.259 L 87.965 155.352 84.803 155.569 C 76.496 156.138,71.056 161.903,68.680 172.656 C 67.369 178.586,67.388 191.542,68.716 197.656 C 69.206 199.912,69.634 202.109,69.667 202.539 C 69.700 202.969,69.823 203.408,69.940 203.516 C 70.387 203.923,71.859 207.913,71.674 208.213 C 71.567 208.386,71.616 208.586,71.782 208.658 C 72.081 208.788,75.258 213.998,75.365 214.536 C 75.724 216.331,83.620 222.510,87.483 224.020 L 89.648 224.867 89.599 227.179 C 89.507 231.403,87.748 254.255,87.524 254.117 C 87.404 254.043,87.318 257.876,87.335 262.636 C 87.390 278.173,87.964 279.169,111.331 304.297 C 123.194 317.054,125.187 319.267,125.098 319.581 C 125.044 319.768,125.132 319.883,125.293 319.836 C 125.775 319.695,130.885 325.234,130.567 325.553 C 130.406 325.714,130.449 325.796,130.664 325.735 C 130.879 325.674,132.988 327.555,135.352 329.915 C 137.715 332.275,140.835 334.985,142.285 335.936 C 143.735 336.887,144.922 337.775,144.922 337.908 C 144.922 338.042,145.142 338.163,145.410 338.179 C 145.679 338.194,147.436 338.847,149.315 339.631 C 156.225 342.513,153.290 342.350,199.902 342.447 C 229.134 342.508,241.797 342.409,241.797 342.121 C 241.797 341.886,242.293 341.781,242.948 341.877 C 243.581 341.970,244.010 341.902,243.902 341.726 C 243.723 341.437,244.749 341.262,246.582 341.270 C 246.958 341.272,247.266 341.141,247.266 340.980 C 247.266 340.819,248.188 340.386,249.316 340.016 C 256.418 337.692,260.545 334.449,271.662 322.461 C 281.195 312.181,282.210 311.131,282.514 311.230 C 282.678 311.284,282.769 311.174,282.715 310.985 C 282.590 310.547,294.994 297.037,295.400 297.168 C 295.567 297.222,295.659 297.113,295.605 296.926 C 295.552 296.739,297.662 294.198,300.295 291.280 C 308.634 282.036,310.681 278.674,312.168 271.778 C 313.146 267.238,313.138 266.952,311.335 244.922 C 310.922 239.873,310.480 233.984,310.352 231.836 C 310.224 229.688,310.024 227.269,309.908 226.462 L 309.696 224.995 312.172 223.883 C 313.872 223.119,314.738 222.906,314.935 223.202 C 315.116 223.473,315.225 223.394,315.228 222.988 C 315.232 222.633,315.806 222.004,316.504 221.589 C 322.888 217.801,330.859 204.457,330.859 197.560 C 330.859 197.158,330.991 196.910,331.152 197.010 C 331.313 197.110,331.469 196.637,331.497 195.959 C 331.525 195.281,331.701 191.334,331.888 187.187 C 332.074 183.040,332.122 179.524,331.995 179.374 C 331.867 179.224,331.545 177.613,331.278 175.794 C 330.116 167.870,327.116 161.944,322.572 158.595 C 321.773 158.007,321.246 157.386,321.400 157.216 C 321.554 157.045,321.476 157.023,321.227 157.165 C 320.978 157.308,319.970 157.080,318.988 156.659 C 318.005 156.238,315.880 155.773,314.265 155.627 L 311.328 155.361 311.328 152.431 C 311.328 150.114,311.471 149.383,312.012 148.940 C 312.388 148.632,312.476 148.491,312.207 148.627 C 311.665 148.901,311.614 138.159,312.063 118.605 L 312.305 108.109 315.414 107.012 C 317.125 106.409,318.707 106.019,318.930 106.145 C 319.153 106.272,319.210 106.236,319.057 106.066 C 318.903 105.896,318.951 105.432,319.163 105.036 C 319.911 103.639,317.477 99.548,312.075 93.123 C 310.409 91.142,309.164 89.390,309.308 89.229 C 309.452 89.069,309.374 89.049,309.134 89.186 C 308.698 89.435,307.140 88.032,307.324 87.557 C 307.378 87.418,307.202 87.297,306.934 87.287 C 306.665 87.277,306.504 87.013,306.576 86.701 C 306.647 86.388,306.578 86.260,306.422 86.416 C 306.266 86.572,305.093 85.732,303.816 84.549 C 302.538 83.366,300.102 81.321,298.403 80.003 C 296.703 78.686,295.320 77.505,295.328 77.378 C 295.344 77.138,301.924 74.004,302.315 74.050 C 302.774 74.103,303.906 72.309,303.906 71.528 C 303.906 68.948,289.341 65.234,279.223 65.234 L 274.524 65.234 271.149 61.868 C 263.556 54.295,252.029 47.201,238.867 42.000 C 237.363 41.406,236.045 40.809,235.938 40.675 C 235.478 40.098,233.265 40.228,232.625 40.869 M75.260 94.010 C 74.752 94.519,75.010 95.312,75.684 95.307 C 76.224 95.302,76.255 95.229,75.829 94.960 C 75.533 94.772,75.411 94.423,75.559 94.184 C 75.854 93.707,75.671 93.600,75.260 94.010 M189.997 133.149 C 198.992 141.197,200.228 142.188,201.281 142.188 C 201.971 142.188,207.152 139.104,218.670 131.841 C 221.312 130.175,223.566 128.905,223.679 129.018 C 223.793 129.131,223.572 133.009,223.189 137.635 C 222.438 146.706,222.570 147.656,224.584 147.656 C 225.329 147.656,232.254 143.092,248.351 131.992 C 256.674 126.252,256.135 126.221,256.645 132.457 C 257.746 145.934,257.860 146.741,258.761 147.357 C 259.922 148.153,260.966 147.409,280.959 131.543 C 287.080 126.685,286.776 126.789,287.809 129.199 C 294.869 145.671,298.413 167.178,297.930 190.625 C 297.625 205.407,297.323 206.304,289.539 215.521 C 280.760 225.917,280.305 226.766,282.014 229.569 C 282.815 230.882,284.724 231.564,286.249 231.080 C 286.672 230.946,289.357 228.087,292.215 224.729 C 298.384 217.479,297.779 217.084,298.623 228.906 C 298.968 233.740,299.499 240.332,299.802 243.555 C 302.719 274.538,303.598 271.662,285.176 291.406 C 282.671 294.092,279.326 297.695,277.744 299.414 C 252.818 326.490,249.636 329.112,240.108 330.435 C 235.079 331.133,162.189 331.014,158.530 330.301 C 148.781 328.403,149.500 329.060,107.340 283.530 C 97.120 272.493,97.266 273.587,100.765 234.375 C 100.966 232.119,101.235 228.252,101.363 225.781 C 101.491 223.311,101.692 220.674,101.811 219.922 L 102.026 218.555 102.868 219.579 C 112.924 231.807,113.768 232.485,116.613 230.621 C 119.952 228.433,118.827 226.088,108.674 214.080 C 103.640 208.126,102.559 205.422,101.923 197.198 C 100.292 176.124,105.590 142.319,112.762 128.027 C 113.532 126.493,113.200 126.298,122.741 133.887 C 142.659 149.728,142.568 149.662,143.932 149.528 C 145.502 149.374,145.750 148.528,147.290 138.086 C 148.606 129.168,148.926 127.734,149.600 127.734 C 149.821 127.734,153.736 130.347,158.301 133.540 C 181.096 149.486,178.783 149.202,179.727 136.171 C 180.391 127.004,180.615 125.666,181.453 125.857 C 181.743 125.923,185.588 129.204,189.997 133.149 M122.656 161.988 C 118.771 163.367,115.472 169.066,116.759 172.174 C 117.415 173.759,118.044 174.050,127.930 177.350 C 134.514 179.548,136.874 180.496,136.765 180.897 C 131.943 198.632,155.049 208.468,163.056 192.090 C 164.362 189.419,163.626 189.480,171.289 191.406 C 185.527 194.986,188.581 193.117,190.452 179.681 C 191.616 171.320,191.351 170.313,187.991 170.313 C 186.078 170.313,185.547 171.079,184.319 175.605 C 182.232 183.297,182.343 183.293,164.347 176.408 C 148.505 170.348,139.741 166.988,133.254 164.486 C 126.503 161.882,124.371 161.380,122.656 161.988 M266.211 164.691 C 243.879 173.592,221.693 181.641,219.490 181.641 C 217.543 181.641,217.214 181.258,216.179 177.790 C 214.169 171.055,213.691 170.313,211.362 170.313 C 208.559 170.313,208.247 171.887,209.385 180.290 C 211.096 192.917,215.129 195.134,229.396 191.291 C 236.082 189.490,235.547 189.432,236.786 192.097 C 241.766 202.803,257.028 203.148,262.191 192.670 C 263.740 189.524,264.239 183.834,263.155 181.661 C 262.428 180.205,261.561 180.655,271.401 177.381 C 280.291 174.423,282.575 173.447,282.960 172.446 C 284.543 168.319,279.731 161.704,275.161 161.726 C 274.185 161.731,270.951 162.802,266.211 164.691 M87.484 167.429 C 89.935 169.492,90.286 171.082,90.255 180.001 C 90.231 186.967,90.738 198.996,91.440 208.134 C 91.947 214.725,92.073 214.464,89.145 212.903 C 82.369 209.291,78.499 200.444,77.862 187.109 C 77.182 172.860,82.066 162.870,87.484 167.429 M316.797 167.501 C 319.594 169.491,321.486 176.601,321.482 185.110 C 321.475 199.227,317.347 209.442,310.179 213.075 C 307.584 214.389,307.705 214.657,308.232 208.742 C 308.478 205.975,308.793 196.416,308.930 187.500 C 309.177 171.438,309.188 171.272,310.114 169.392 C 311.553 166.469,314.267 165.701,316.797 167.501 M66.296 187.402 C 66.209 187.563,66.272 188.135,66.436 188.672 C 66.704 189.555,66.728 189.527,66.682 188.379 C 66.629 187.067,66.564 186.902,66.296 187.402 M69.247 204.679 C 69.280 205.113,69.445 205.469,69.614 205.469 C 70.046 205.469,69.999 204.391,69.555 204.116 C 69.353 203.991,69.215 204.245,69.247 204.679 M173.633 207.644 C 167.239 210.963,165.940 221.095,171.248 226.250 C 173.541 228.478,176.031 229.061,180.739 228.473 L 184.600 227.992 188.101 229.603 C 196.409 233.428,204.461 233.435,211.914 229.624 L 215.039 228.025 218.555 228.456 C 226.807 229.467,231.627 225.651,231.637 218.099 C 231.647 210.804,224.969 204.292,221.271 207.990 C 219.994 209.267,220.047 209.709,221.875 213.040 C 224.363 217.573,223.680 220.274,220.177 219.758 C 214.462 218.915,213.643 218.979,210.346 220.527 C 202.984 223.982,197.919 223.978,190.234 220.508 C 186.768 218.943,183.867 218.610,181.507 219.508 C 176.896 221.261,174.733 217.774,177.539 213.113 C 180.213 208.672,177.898 205.431,173.633 207.644 M311.925 241.033 C 312.063 241.257,311.961 241.700,311.697 242.018 C 311.302 242.495,311.330 242.553,311.859 242.350 C 312.561 242.081,312.753 240.625,312.086 240.625 C 311.859 240.625,311.786 240.808,311.925 241.033 M183.203 256.876 C 182.451 256.959,179.924 257.211,177.587 257.437 C 158.246 259.306,142.578 266.987,142.578 274.601 C 142.578 278.443,145.565 279.127,150.332 276.377 C 162.653 269.271,172.531 267.490,199.609 267.492 C 226.556 267.495,236.518 269.238,248.548 276.057 C 256.674 280.662,260.456 275.207,253.645 268.707 C 247.594 262.934,238.652 259.491,224.768 257.590 C 220.375 256.988,187.326 256.421,183.203 256.876 M181.321 283.686 C 178.025 284.537,177.528 289.558,180.557 291.405 C 182.226 292.422,216.141 292.635,218.516 291.643 C 221.712 290.308,222.020 285.630,219.019 284.024 C 217.941 283.447,183.442 283.137,181.321 283.686 M119.141 313.984 C 119.141 314.438,120.010 315.236,120.488 315.222 C 120.714 315.216,120.587 315.029,120.207 314.808 C 119.826 314.586,119.617 314.240,119.741 314.038 C 119.866 313.837,119.782 313.672,119.554 313.672 C 119.327 313.672,119.141 313.813,119.141 313.984 M178.034 343.642 C 178.736 343.729,179.791 343.728,180.378 343.638 C 180.965 343.549,180.391 343.478,179.102 343.480 C 177.813 343.483,177.332 343.556,178.034 343.642 " stroke="none" fill="#1a1b1a" fill-rule="evenodd"></path><path id="path2" d="M231.641 42.555 C 231.641 43.187,231.780 43.790,231.950 43.895 C 232.120 44.000,232.188 43.483,232.102 42.746 C 231.911 41.104,231.641 40.993,231.641 42.555 M171.191 42.457 C 171.567 42.555,172.183 42.555,172.559 42.457 C 172.935 42.359,172.627 42.278,171.875 42.278 C 171.123 42.278,170.815 42.359,171.191 42.457 M163.770 42.847 C 164.146 42.946,164.761 42.946,165.137 42.847 C 165.513 42.749,165.205 42.669,164.453 42.669 C 163.701 42.669,163.394 42.749,163.770 42.847 M241.797 43.164 C 242.334 43.471,242.949 43.722,243.164 43.722 C 243.379 43.722,243.115 43.471,242.578 43.164 C 242.041 42.857,241.426 42.606,241.211 42.606 C 240.996 42.606,241.260 42.857,241.797 43.164 M243.783 43.896 C 244.185 44.255,246.484 45.312,246.484 45.137 C 246.484 44.912,244.319 43.750,243.900 43.750 C 243.746 43.750,243.693 43.816,243.783 43.896 M252.734 48.222 C 252.734 48.330,253.262 48.690,253.906 49.023 C 254.551 49.357,255.078 49.542,255.078 49.434 C 255.078 49.327,254.551 48.966,253.906 48.633 C 253.262 48.300,252.734 48.115,252.734 48.222 M273.728 64.395 C 274.311 65.006,274.766 65.073,276.758 64.841 L 279.102 64.568 276.543 64.511 C 275.136 64.479,273.772 64.278,273.513 64.065 C 273.254 63.851,273.351 64.000,273.728 64.395 M288.314 65.768 C 288.403 65.847,289.180 66.019,290.039 66.150 C 291.128 66.316,291.365 66.281,290.820 66.034 C 290.070 65.694,287.978 65.473,288.314 65.768 M109.277 67.802 C 107.763 68.623,107.934 68.907,109.473 68.124 C 110.945 67.376,111.206 67.181,110.710 67.203 C 110.513 67.212,109.868 67.481,109.277 67.802 M303.467 70.411 C 303.812 70.851,303.917 71.548,303.760 72.364 C 303.587 73.266,303.628 73.464,303.901 73.047 C 304.498 72.136,304.366 70.853,303.613 70.263 C 302.994 69.777,302.980 69.790,303.467 70.411 M103.613 71.139 C 102.282 71.991,101.851 72.564,103.027 71.917 C 103.924 71.425,105.328 70.339,105.078 70.332 C 104.971 70.328,104.312 70.692,103.613 71.139 M295.550 77.275 C 295.441 77.452,296.266 78.255,297.383 79.059 C 298.500 79.864,298.942 80.088,298.365 79.559 C 297.788 79.029,297.436 78.475,297.584 78.328 C 297.731 78.181,297.676 78.102,297.461 78.154 C 296.658 78.349,295.599 77.650,296.159 77.295 C 296.514 77.070,296.532 76.963,296.214 76.959 C 295.959 76.956,295.660 77.098,295.550 77.275 M300.781 81.783 C 300.781 81.890,301.309 82.354,301.953 82.813 C 302.598 83.271,303.125 83.559,303.125 83.452 C 303.125 83.344,302.598 82.881,301.953 82.422 C 301.309 81.963,300.781 81.675,300.781 81.783 M81.641 88.477 C 81.136 89.014,80.886 89.448,81.084 89.441 C 81.418 89.429,83.028 87.500,82.704 87.500 C 82.624 87.500,82.145 87.939,81.641 88.477 M309.362 89.989 C 310.536 91.198,311.569 92.188,311.657 92.188 C 311.948 92.188,308.455 88.485,307.834 88.133 C 307.500 87.945,308.187 88.780,309.362 89.989 M76.161 94.942 C 75.925 95.383,75.787 96.010,75.854 96.334 C 75.922 96.659,76.170 96.298,76.407 95.533 C 76.890 93.968,76.799 93.750,76.161 94.942 M76.721 97.949 C 77.130 98.433,77.745 98.814,78.088 98.797 C 78.617 98.771,78.622 98.734,78.125 98.551 C 77.803 98.433,77.188 98.051,76.758 97.703 C 75.983 97.076,75.983 97.078,76.721 97.949 M319.531 104.364 C 319.531 104.615,319.233 105.150,318.870 105.552 C 318.248 106.240,318.248 106.268,318.870 106.030 C 319.233 105.890,319.531 105.608,319.531 105.404 C 319.531 105.199,319.691 105.131,319.885 105.251 C 320.080 105.371,320.148 105.118,320.035 104.688 C 319.810 103.827,319.531 103.647,319.531 104.364 M312.250 125.391 C 312.250 127.432,312.316 128.267,312.396 127.246 C 312.477 126.226,312.477 124.556,312.396 123.535 C 312.316 122.515,312.250 123.350,312.250 125.391 M311.979 129.557 C 311.613 129.923,311.654 131.250,312.031 131.250 C 312.203 131.250,312.344 130.811,312.344 130.273 C 312.344 129.189,312.345 129.191,311.979 129.557 M311.830 133.398 C 311.833 134.473,311.909 134.866,311.999 134.272 C 312.089 133.678,312.086 132.799,311.994 132.319 C 311.901 131.838,311.828 132.324,311.830 133.398 M87.246 138.281 C 87.246 140.107,87.313 140.854,87.395 139.941 C 87.478 139.028,87.478 137.534,87.395 136.621 C 87.313 135.708,87.246 136.455,87.246 138.281 M311.817 145.117 C 311.822 145.977,311.902 146.282,311.995 145.796 C 312.088 145.310,312.085 144.607,311.987 144.234 C 311.889 143.860,311.813 144.258,311.817 145.117 M87.200 151.563 C 87.200 152.314,87.280 152.622,87.379 152.246 C 87.477 151.870,87.477 151.255,87.379 150.879 C 87.280 150.503,87.200 150.811,87.200 151.563 M311.419 152.734 C 311.419 153.486,311.499 153.794,311.597 153.418 C 311.696 153.042,311.696 152.427,311.597 152.051 C 311.499 151.675,311.419 151.982,311.419 152.734 M321.916 157.910 C 322.010 157.964,323.050 158.887,324.227 159.961 L 326.367 161.914 324.429 159.863 C 323.363 158.735,322.323 157.813,322.118 157.813 C 321.913 157.813,321.822 157.856,321.916 157.910 M67.313 185.156 C 67.313 186.553,67.383 187.124,67.470 186.426 C 67.557 185.728,67.557 184.585,67.470 183.887 C 67.383 183.188,67.313 183.760,67.313 185.156 M332.170 187.695 C 332.169 189.629,332.235 190.469,332.317 189.563 C 332.399 188.656,332.400 187.074,332.319 186.047 C 332.238 185.020,332.171 185.762,332.170 187.695 M101.653 187.109 C 101.653 187.861,101.734 188.169,101.832 187.793 C 101.930 187.417,101.930 186.802,101.832 186.426 C 101.734 186.050,101.653 186.357,101.653 187.109 M101.653 190.625 C 101.653 191.377,101.734 191.685,101.832 191.309 C 101.930 190.933,101.930 190.317,101.832 189.941 C 101.734 189.565,101.653 189.873,101.653 190.625 M331.731 192.969 C 331.731 193.721,331.812 194.028,331.910 193.652 C 332.008 193.276,332.008 192.661,331.910 192.285 C 331.812 191.909,331.731 192.217,331.731 192.969 M321.484 217.383 C 320.536 218.350,319.847 219.141,319.955 219.141 C 320.062 219.141,320.926 218.350,321.875 217.383 C 322.824 216.416,323.512 215.625,323.405 215.625 C 323.297 215.625,322.433 216.416,321.484 217.383 M310.449 224.641 C 310.073 224.860,309.768 225.250,309.772 225.508 C 309.776 225.832,309.866 225.846,310.065 225.553 C 310.222 225.319,310.703 224.929,311.133 224.686 C 311.563 224.442,311.738 224.243,311.523 224.243 C 311.309 224.243,310.825 224.422,310.449 224.641 M89.422 226.075 C 89.609 227.423,89.636 227.450,89.765 226.417 C 89.842 225.800,89.751 225.141,89.562 224.953 C 89.366 224.756,89.306 225.235,89.422 226.075 M311.602 246.875 C 311.725 248.057,311.889 249.097,311.967 249.186 C 312.241 249.499,312.029 246.671,311.706 245.703 C 311.495 245.073,311.459 245.488,311.602 246.875 M308.789 280.859 C 308.456 281.504,308.271 282.031,308.378 282.031 C 308.486 282.031,308.846 281.504,309.180 280.859 C 309.513 280.215,309.698 279.688,309.590 279.688 C 309.483 279.688,309.122 280.215,308.789 280.859 M91.644 282.350 C 92.050 283.063,92.723 283.942,93.139 284.304 C 93.578 284.686,93.424 284.307,92.770 283.398 C 91.204 281.224,90.771 280.821,91.644 282.350 M287.874 304.931 C 286.916 305.924,286.319 306.671,286.547 306.591 C 286.973 306.441,290.062 303.125,289.775 303.125 C 289.688 303.125,288.832 303.938,287.874 304.931 M111.849 305.628 C 111.849 305.951,111.977 306.137,112.133 306.040 C 112.289 305.943,113.139 306.695,114.021 307.710 C 114.903 308.725,115.625 309.376,115.625 309.157 C 115.625 308.939,114.775 307.923,113.737 306.900 C 112.620 305.800,111.849 305.280,111.849 305.628 M116.656 310.645 C 117.028 311.128,117.959 312.040,118.725 312.671 C 119.715 313.487,119.557 313.233,118.179 311.792 C 116.114 309.634,115.550 309.209,116.656 310.645 M123.029 317.383 C 123.972 318.457,124.824 319.424,124.924 319.531 C 125.024 319.639,124.921 319.375,124.694 318.945 C 124.468 318.516,123.615 317.549,122.800 316.797 C 121.390 315.497,121.401 315.526,123.029 317.383 M273.614 320.410 L 272.070 322.070 273.730 320.526 C 275.274 319.090,275.570 318.750,275.275 318.750 C 275.211 318.750,274.464 319.497,273.614 320.410 M128.127 322.828 C 130.401 325.392,130.469 325.458,130.469 325.109 C 130.469 324.924,129.635 323.988,128.615 323.031 C 126.844 321.367,126.823 321.358,128.127 322.828 M267.974 326.361 C 267.249 327.110,266.733 327.800,266.827 327.895 C 266.922 327.990,267.579 327.377,268.288 326.534 C 269.882 324.634,269.730 324.550,267.974 326.361 M131.576 326.689 C 132.045 327.188,132.340 327.687,132.230 327.796 C 132.121 327.905,132.300 327.995,132.628 327.995 C 133.054 327.995,132.921 327.678,132.164 326.888 C 131.581 326.279,131.018 325.781,130.914 325.781 C 130.809 325.781,131.107 326.190,131.576 326.689 M254.590 337.723 C 253.130 338.516,253.218 338.846,254.688 338.086 C 255.332 337.753,255.859 337.397,255.859 337.295 C 255.859 337.043,255.817 337.057,254.590 337.723 M145.313 338.083 C 145.313 338.348,148.485 339.926,148.662 339.749 C 148.744 339.667,148.024 339.218,147.062 338.751 C 146.100 338.283,145.313 337.983,145.313 338.083 M238.579 342.464 C 239.065 342.557,239.768 342.554,240.141 342.456 C 240.515 342.358,240.117 342.282,239.258 342.286 C 238.398 342.290,238.093 342.370,238.579 342.464 M181.377 342.871 C 191.652 342.929,208.352 342.929,218.487 342.871 C 228.622 342.813,220.215 342.766,199.805 342.766 C 179.395 342.766,171.102 342.813,181.377 342.871 " stroke="none" fill="#5d605c" fill-rule="evenodd"></path><path id="path3" d="M173.735 42.464 C 174.221 42.557,174.924 42.554,175.298 42.456 C 175.671 42.358,175.273 42.282,174.414 42.286 C 173.555 42.290,173.249 42.370,173.735 42.464 M185.454 42.464 C 185.940 42.557,186.643 42.554,187.016 42.456 C 187.390 42.358,186.992 42.282,186.133 42.286 C 185.273 42.290,184.968 42.370,185.454 42.464 M276.953 64.876 L 274.805 65.107 277.637 65.171 C 280.381 65.232,281.193 65.088,279.785 64.790 C 279.409 64.710,278.135 64.749,276.953 64.876 M311.825 128.125 C 311.825 129.092,311.901 129.487,311.994 129.004 C 312.088 128.521,312.088 127.729,311.994 127.246 C 311.901 126.763,311.825 127.158,311.825 128.125 M87.246 132.031 C 87.246 133.857,87.313 134.604,87.395 133.691 C 87.478 132.778,87.478 131.284,87.395 130.371 C 87.313 129.458,87.246 130.205,87.246 132.031 M222.747 140.234 C 222.747 140.986,222.827 141.294,222.926 140.918 C 223.024 140.542,223.024 139.927,222.926 139.551 C 222.827 139.175,222.747 139.482,222.747 140.234 M222.356 144.922 C 222.356 145.674,222.437 145.981,222.535 145.605 C 222.633 145.229,222.633 144.614,222.535 144.238 C 222.437 143.862,222.356 144.170,222.356 144.922 M311.419 150.391 C 311.419 151.143,311.499 151.450,311.597 151.074 C 311.696 150.698,311.696 150.083,311.597 149.707 C 311.499 149.331,311.419 149.639,311.419 150.391 M309.137 187.109 C 309.137 190.010,309.199 191.196,309.274 189.746 C 309.349 188.296,309.349 185.923,309.274 184.473 C 309.199 183.022,309.137 184.209,309.137 187.109 M101.661 184.570 C 101.665 185.430,101.745 185.735,101.839 185.249 C 101.932 184.763,101.929 184.060,101.831 183.687 C 101.733 183.313,101.657 183.711,101.661 184.570 M136.036 184.570 C 136.040 185.430,136.120 185.735,136.214 185.249 C 136.307 184.763,136.304 184.060,136.206 183.687 C 136.108 183.313,136.032 183.711,136.036 184.570 M263.778 185.938 C 263.778 186.904,263.854 187.300,263.948 186.816 C 264.041 186.333,264.041 185.542,263.948 185.059 C 263.854 184.575,263.778 184.971,263.778 185.938 M136.028 187.500 C 136.028 188.252,136.109 188.560,136.207 188.184 C 136.305 187.808,136.305 187.192,136.207 186.816 C 136.109 186.440,136.028 186.748,136.028 187.500 M90.341 191.406 C 90.341 192.373,90.417 192.769,90.510 192.285 C 90.603 191.802,90.603 191.011,90.510 190.527 C 90.417 190.044,90.341 190.439,90.341 191.406 M101.661 193.164 C 101.665 194.023,101.745 194.329,101.839 193.843 C 101.932 193.357,101.929 192.654,101.831 192.281 C 101.733 191.907,101.657 192.305,101.661 193.164 M179.594 193.245 C 180.080 193.338,180.783 193.335,181.157 193.237 C 181.530 193.139,181.133 193.063,180.273 193.067 C 179.414 193.072,179.108 193.152,179.594 193.245 M219.048 193.245 C 219.533 193.338,220.237 193.335,220.610 193.237 C 220.983 193.139,220.586 193.063,219.727 193.067 C 218.867 193.072,218.562 193.152,219.048 193.245 M231.752 218.164 C 231.755 219.238,231.831 219.631,231.921 219.038 C 232.011 218.444,232.008 217.565,231.916 217.084 C 231.823 216.604,231.749 217.090,231.752 218.164 M214.751 219.026 C 215.237 219.120,215.940 219.116,216.313 219.018 C 216.687 218.921,216.289 218.844,215.430 218.849 C 214.570 218.853,214.265 218.933,214.751 219.026 M195.215 256.542 C 197.847 256.609,202.153 256.609,204.785 256.542 C 207.417 256.474,205.264 256.419,200.000 256.419 C 194.736 256.419,192.583 256.474,195.215 256.542 M197.949 267.475 C 199.077 267.554,200.923 267.554,202.051 267.475 C 203.179 267.397,202.256 267.332,200.000 267.332 C 197.744 267.332,196.821 267.397,197.949 267.475 M252.734 267.700 C 252.734 267.768,253.306 268.339,254.004 268.970 L 255.273 270.117 254.126 268.848 C 253.057 267.664,252.734 267.399,252.734 267.700 M189.966 283.496 C 193.578 283.560,199.379 283.560,202.857 283.495 C 206.334 283.431,203.379 283.378,196.289 283.378 C 189.199 283.378,186.354 283.431,189.966 283.496 M210.850 283.490 C 211.769 283.572,213.175 283.571,213.975 283.487 C 214.775 283.403,214.023 283.336,212.305 283.337 C 210.586 283.338,209.931 283.407,210.850 283.490 M112.891 289.648 C 113.619 290.400,114.304 291.016,114.411 291.016 C 114.518 291.016,114.010 290.400,113.281 289.648 C 112.552 288.896,111.868 288.281,111.761 288.281 C 111.653 288.281,112.162 288.896,112.891 289.648 M117.578 294.653 C 117.578 294.721,118.149 295.292,118.848 295.923 L 120.117 297.070 118.970 295.801 C 117.900 294.617,117.578 294.352,117.578 294.653 M274.389 302.832 L 273.242 304.102 274.512 302.954 C 275.695 301.885,275.961 301.563,275.659 301.563 C 275.592 301.563,275.021 302.134,274.389 302.832 M134.961 313.281 C 135.800 314.141,136.575 314.844,136.682 314.844 C 136.789 314.844,136.191 314.141,135.352 313.281 C 134.512 312.422,133.738 311.719,133.631 311.719 C 133.523 311.719,134.122 312.422,134.961 313.281 M263.061 314.941 L 261.914 316.211 263.184 315.064 C 264.367 313.994,264.633 313.672,264.331 313.672 C 264.264 313.672,263.692 314.243,263.061 314.941 M141.602 320.313 C 142.441 321.172,143.215 321.875,143.323 321.875 C 143.430 321.875,142.831 321.172,141.992 320.313 C 141.153 319.453,140.379 318.750,140.271 318.750 C 140.164 318.750,140.762 319.453,141.602 320.313 M213.379 343.629 C 213.755 343.727,214.370 343.727,214.746 343.629 C 215.122 343.530,214.814 343.450,214.063 343.450 C 213.311 343.450,213.003 343.530,213.379 343.629 M228.613 343.629 C 228.989 343.727,229.604 343.727,229.980 343.629 C 230.356 343.530,230.049 343.450,229.297 343.450 C 228.545 343.450,228.237 343.530,228.613 343.629 " stroke="none" fill="#3e593d" fill-rule="evenodd"></path><path id="path4" d="M86.847 106.445 C 86.849 107.949,86.919 108.517,87.004 107.706 C 87.088 106.896,87.087 105.665,87.001 104.972 C 86.914 104.278,86.845 104.941,86.847 106.445 M312.259 112.695 C 312.259 115.273,312.322 116.277,312.399 114.926 C 312.475 113.575,312.475 111.466,312.398 110.239 C 312.320 109.012,312.258 110.117,312.259 112.695 M86.874 114.844 C 86.874 117.959,86.935 119.233,87.009 117.676 C 87.083 116.118,87.083 113.569,87.009 112.012 C 86.935 110.454,86.874 111.729,86.874 114.844 M312.230 119.727 C 312.233 121.016,312.306 121.496,312.392 120.794 C 312.479 120.092,312.478 119.037,312.388 118.450 C 312.299 117.863,312.228 118.438,312.230 119.727 M311.866 139.453 C 311.866 141.924,311.930 142.935,312.007 141.699 C 312.085 140.464,312.085 138.442,312.007 137.207 C 311.930 135.972,311.866 136.982,311.866 139.453 M87.208 144.336 C 87.212 145.195,87.292 145.501,87.386 145.015 C 87.479 144.529,87.476 143.826,87.378 143.452 C 87.280 143.079,87.204 143.477,87.208 144.336 M84.869 155.358 C 85.462 155.448,86.341 155.446,86.822 155.353 C 87.302 155.260,86.816 155.187,85.742 155.190 C 84.668 155.193,84.275 155.269,84.869 155.358 M309.123 176.758 C 309.122 178.691,309.188 179.532,309.270 178.625 C 309.352 177.718,309.353 176.136,309.272 175.109 C 309.191 174.082,309.124 174.824,309.123 176.758 M297.763 179.688 C 297.763 180.654,297.839 181.050,297.932 180.566 C 298.025 180.083,298.025 179.292,297.932 178.809 C 297.839 178.325,297.763 178.721,297.763 179.688 M77.868 184.570 C 77.870 186.289,77.938 186.944,78.021 186.025 C 78.103 185.106,78.102 183.700,78.018 182.900 C 77.934 182.100,77.867 182.852,77.868 184.570 M309.075 194.531 C 309.075 195.283,309.155 195.591,309.254 195.215 C 309.352 194.839,309.352 194.224,309.254 193.848 C 309.155 193.472,309.075 193.779,309.075 194.531 M89.153 230.859 C 89.153 231.611,89.234 231.919,89.332 231.543 C 89.430 231.167,89.430 230.552,89.332 230.176 C 89.234 229.800,89.153 230.107,89.153 230.859 M88.388 240.625 C 88.388 241.592,88.464 241.987,88.557 241.504 C 88.650 241.021,88.650 240.229,88.557 239.746 C 88.464 239.263,88.388 239.658,88.388 240.625 M312.208 254.102 C 312.212 254.961,312.292 255.267,312.386 254.781 C 312.479 254.295,312.476 253.592,312.378 253.218 C 312.280 252.845,312.204 253.242,312.208 254.102 M87.208 256.445 C 87.212 257.305,87.292 257.610,87.386 257.124 C 87.479 256.638,87.476 255.935,87.378 255.562 C 87.280 255.188,87.204 255.586,87.208 256.445 M312.612 259.570 C 312.615 260.645,312.691 261.038,312.780 260.444 C 312.870 259.850,312.868 258.971,312.775 258.491 C 312.682 258.010,312.609 258.496,312.612 259.570 M86.830 267.383 C 86.833 268.457,86.909 268.850,86.999 268.256 C 87.089 267.663,87.086 266.784,86.994 266.303 C 86.901 265.823,86.828 266.309,86.830 267.383 M301.263 266.797 C 301.263 267.549,301.343 267.856,301.441 267.480 C 301.539 267.104,301.539 266.489,301.441 266.113 C 301.343 265.737,301.263 266.045,301.263 266.797 " stroke="none" fill="#5a7c58" fill-rule="evenodd"></path></g></svg>